<?xml version="1.0" standalone="no"?>
<!DOCTYPE svg PUBLIC "-//W3C//DTD SVG 20010904//EN"
 "http://www.w3.org/TR/2001/REC-SVG-20010904/DTD/svg10.dtd">
<svg version="1.0" xmlns="http://www.w3.org/2000/svg"
 width="700.000000pt" height="700.000000pt" viewBox="0 0 700.000000 700.000000"
 preserveAspectRatio="xMidYMid meet">
<metadata>
Created by potrace 1.14, written by Peter Selinger 2001-2017
</metadata>
<g transform="translate(0.000000,700.000000) scale(0.100000,-0.100000)"
fill="#000000" stroke="none">
<path d="M6780 6864 c-118 -74 -224 -138 -235 -144 -11 -5 -74 -43 -140 -84
-66 -41 -165 -102 -220 -135 -55 -34 -154 -95 -220 -136 -66 -40 -154 -94
-195 -119 -41 -25 -110 -67 -152 -93 -42 -27 -166 -102 -275 -169 -205 -125
-817 -500 -960 -589 -45 -27 -152 -93 -238 -145 -143 -87 -156 -97 -152 -120
2 -14 37 -135 76 -270 40 -135 95 -324 122 -420 28 -96 56 -180 62 -186 9 -9
180 -64 277 -88 8 -2 78 -23 155 -46 77 -23 165 -48 195 -56 30 -8 98 -28 151
-44 53 -17 102 -30 110 -30 11 0 126 179 250 388 18 29 650 1060 757 1232 35
58 101 165 146 238 44 73 93 152 108 175 15 23 31 49 35 57 4 8 28 49 54 90
25 41 115 188 199 325 84 138 189 307 232 378 43 70 77 127 75 126 -1 0 -99
-61 -217 -135z"/>
<path d="M10 6987 c0 -2 64 -107 141 -233 78 -126 149 -242 159 -259 10 -16
46 -77 82 -135 373 -605 744 -1210 755 -1230 26 -47 242 -395 252 -407 6 -7
11 -14 11 -17 0 -8 406 -669 427 -695 l20 -25 93 28 c50 15 99 29 109 31 9 2
124 36 256 75 254 76 329 97 384 110 19 5 39 14 46 22 10 10 201 643 220 728
2 8 13 44 24 80 11 36 21 72 21 80 0 8 -37 38 -83 66 -112 70 -705 433 -739
453 -15 9 -233 142 -485 297 -252 155 -570 350 -708 434 -137 84 -261 160
-275 169 -14 8 -33 20 -43 26 -56 32 -525 320 -537 330 -22 17 -130 77 -130
72z"/>
<path d="M1814 2958 c-17 -29 -97 -161 -179 -293 -81 -132 -255 -415 -387
-630 -132 -214 -243 -397 -249 -405 -5 -8 -47 -78 -94 -155 -47 -77 -89 -147
-94 -155 -6 -8 -47 -76 -93 -150 -46 -74 -87 -143 -93 -152 -5 -10 -86 -141
-178 -290 -93 -150 -174 -282 -180 -293 -7 -11 -26 -42 -43 -70 -17 -27 -37
-61 -46 -75 -8 -14 -52 -85 -97 -158 -45 -74 -76 -130 -69 -126 7 4 36 22 63
39 28 18 174 108 325 200 151 92 330 202 397 244 68 42 131 81 141 86 9 6 148
90 307 188 160 98 299 184 310 190 11 7 60 37 110 68 49 30 142 87 205 125 63
38 117 72 118 77 2 4 7 7 12 7 5 0 87 48 183 108 96 59 322 197 501 307 304
186 327 202 323 225 -3 14 -37 135 -77 270 -39 135 -74 254 -77 265 -3 11 -18
63 -33 115 -16 52 -38 127 -49 166 -12 39 -27 71 -33 72 -7 0 -83 21 -168 47
-85 25 -200 59 -255 75 -55 16 -177 52 -271 80 -93 27 -177 50 -185 50 -8 0
-29 -24 -45 -52z"/>
<path d="M4960 2960 c-91 -26 -281 -82 -422 -124 -142 -42 -264 -76 -272 -76
-10 0 -22 -24 -36 -72 -12 -40 -23 -80 -26 -88 -3 -8 -35 -116 -71 -240 -154
-532 -149 -512 -133 -522 45 -27 680 -416 823 -504 93 -57 173 -104 178 -104
5 0 9 -4 9 -9 0 -5 6 -11 13 -13 7 -2 104 -59 215 -128 112 -69 215 -132 230
-141 15 -9 187 -114 382 -234 537 -330 560 -344 710 -435 77 -47 207 -126 290
-177 l150 -92 -39 62 c-21 34 -204 332 -406 662 -445 726 -918 1497 -994 1621
-31 50 -135 219 -231 377 -106 174 -181 286 -190 286 -8 0 -89 -22 -180 -49z"/>
</g>
</svg>
